<svg xmlns="http://www.w3.org/2000/svg" width="140.012" height="140.205" viewBox="0 0 140.012 140.205">
  <g id="earth" transform="translate(-78 -489)">
    <circle id="Ellipse_13" data-name="Ellipse 13" cx="70" cy="70" r="70" transform="translate(78 489.205)" fill="#353767"/>
    <path id="Intersection_5" data-name="Intersection 5" d="M0,35.987c-.037-5.779,1.151-14.311,2.783-23.239A70.186,70.186,0,0,1,74.131,7.222C71.1,16.055,66.305,23.938,58.7,26.938,45.758,32.047,38.447,39.136,35.113,56.3c-.91,4.687-3.933,6.643-7.848,6.643C16.841,62.947.086,49.08,0,35.987Z" transform="translate(104.998 489)" fill="#1f9b37"/>
    <path id="Intersection_4" data-name="Intersection 4" d="M.4,71.879C-.94,57.476.567,41.595,12.62,37.735,35.872,30.29,26.086-1.838,42.025.083,55.376,1.691,70.643,40.529,73.749,64.749A70.176,70.176,0,0,1,.4,71.879Z" transform="translate(116.785 550.16)" fill="#1f9b37"/>
    <path id="Intersection_6" data-name="Intersection 6" d="M7.443,87.141c4.7-5.309,13.464-11.228,33.349-15.392,38.392-8.039,29.4-2.794,97.008-6.648a69.582,69.582,0,0,1-1.609,7.085c-23.289,3.121-38.7,1.827-65.517,5.426C46.037,80.919,34.03,91.453,17.239,100.651A70.363,70.363,0,0,1,7.443,87.141ZM65.25,57.214c-3.351,0-5.529-.449-6.06-1.57C57.3,51.654,71.555,49.6,82.734,48.623s35.337-6.074,35.337-6.074,5.169-2.073,19.019-5.056a70.021,70.021,0,0,1,1.545,10.339c-12.445,1.634-15.689,2-32.456,4.264-16.051,2.169-32.339,5.118-40.926,5.118ZM2.622,29.676C16.02,26.11,37.09,16.857,37.09,16.857S55.555,7.692,114.526,0a70.516,70.516,0,0,1,8.438,8.657c-12.336,2.408-31.364,5.919-48.349,8.2C46.627,20.614,31,25.908,10.079,35.764A45.985,45.985,0,0,1,0,39.175,69.619,69.619,0,0,1,2.622,29.676Z" transform="translate(79.378 506.029)" fill="#dddbdb" opacity="0.723"/>
  </g>
</svg>
