<svg xmlns="http://www.w3.org/2000/svg" width="87" height="87.058" viewBox="0 0 87 87.058">
  <g id="mercury" transform="translate(-117.517 -312.18)">
    <g id="Ellipse_16" data-name="Ellipse 16" transform="translate(117.517 312.238)" fill="#fff" stroke="#707070" stroke-width="1">
      <circle cx="43.5" cy="43.5" r="43.5" stroke="none"/>
      <circle cx="43.5" cy="43.5" r="43" fill="none"/>
    </g>
    <circle id="Ellipse_18" data-name="Ellipse 18" cx="43.5" cy="43.5" r="43.5" transform="translate(117.517 312.238)" fill="#74789e"/>
    <g id="Group_4" data-name="Group 4" transform="translate(118 312.18)" opacity="0.331">
      <path id="Intersection_8" data-name="Intersection 8" d="M24.323,49.458A75.917,75.917,0,0,0,.149,46.847Q0,45.055,0,43.222a43.565,43.565,0,0,1,.771-8.18A94.981,94.981,0,0,0,19.006,23.947C26.956,17.476,38.358,6.295,46.718,0a43.3,43.3,0,0,1,6.3.953c-7.839,6.382-23.8,17.579-20.158,32.155C36.941,49.43,65.108,65.62,74.444,73.43q-1.2,1.237-2.5,2.377C64.818,70.326,50.769,56.224,24.323,49.458Z" transform="translate(0 0)" fill="#e89c50"/>
      <path id="Intersection_7" data-name="Intersection 7" d="M7.131,79.812c8.813-13.454,24.935-33.685,26.042-39.729C34.3,33.925,11.971,15.624,0,3.98A43.25,43.25,0,0,1,7.345,0C21.778,8.742,42.5,24.691,48.725,33.144c6.148,8.35,12.963,11.374,18.286,13.68a43.05,43.05,0,0,1-1.644,6.756c-5.289-1.689-12.81-2.131-23.233,2.318C27.6,62.1,17.956,73.138,11.654,81.459A43.029,43.029,0,0,1,7.131,79.812Z" transform="translate(19.149 3.271)" fill="#e89c50"/>
    </g>
  </g>
</svg>
