<svg xmlns="http://www.w3.org/2000/svg" width="160.877" height="161.555" viewBox="0 0 160.877 161.555">
  <g id="neptune" transform="translate(-64 -421)">
    <ellipse id="Ellipse_34" data-name="Ellipse 34" cx="80" cy="80.5" rx="80" ry="80.5" transform="translate(64 421.555)" fill="#3131b9"/>
    <path id="Intersection_13" data-name="Intersection 13" d="M5.152,108.824A80.442,80.442,0,1,1,153.283,114.6c-19.67,10.209-43.45,16.177-69.068,16.177C54.087,130.777,26.5,122.521,5.152,108.824Z" transform="translate(64 421)" fill="#5c76e3"/>
    <path id="Intersection_14" data-name="Intersection 14" d="M0,53.162A80.47,80.47,0,0,1,152.3,55.82C131.932,63.4,106.744,67.88,79.472,67.88,49.154,67.88,21.4,62.34,0,53.162Z" transform="translate(68.743 421)" fill="#3131b9"/>
    <path id="Intersection_15" data-name="Intersection 15" d="M21.724,6.778C15.762,6.257,6.758,5.183,0,3.96Q2.443,1.882,5.049,0C32.035.83,88.732,5.649,79.883,8.035c-3.4.916-9,1.256-15.481,1.256C49.508,9.291,29.957,7.5,21.724,6.778Z" transform="translate(92.324 436.305)" fill="#fff" opacity="0.644"/>
    <path id="Intersection_16" data-name="Intersection 16" d="M.662,8.476C3.374,6.7,32.814,2.544,57.092,0q-.676,3.2-1.6,6.308c-9.765,1.3-19.006,2.239-24.026,2.768-6.4.673-16.365,1.39-23.364,1.39C2.192,10.466-1.6,9.955.662,8.476Z" transform="translate(165.913 518.181)" fill="#fff" opacity="0.644"/>
    <path id="Path_22" data-name="Path 22" d="M161.838,651.8c3.744-5.468,59.166-9.076,63.186,0s-10.032,12.762-25.829,12.762S158.094,657.264,161.838,651.8Z" transform="translate(-37.578 -144.449)" fill="#fff" opacity="0.644"/>
    <path id="Path_28" data-name="Path 28" d="M161.53,650.042c.648-3.468,10.827-2.473,11.523,3.282s-2.325,4.812-5.059,4.812S160.882,653.51,161.53,650.042Z" transform="translate(-86.409 -127.298)" fill="#fff" opacity="0.644"/>
  </g>
</svg>
