<svg xmlns="http://www.w3.org/2000/svg" width="471.377" height="182.654" viewBox="0 0 471.377 182.654">
  <g id="saturn" transform="translate(-239.721 -430.628)">
    <ellipse id="Ellipse_55" data-name="Ellipse 55" cx="89" cy="89.5" rx="89" ry="89.5" transform="translate(387 430.628)" fill="#decd46"/>
    <path id="Intersection_18" data-name="Intersection 18" d="M.861,63.116A90.191,90.191,0,0,1,0,50.658c0-.536,0-1.068.014-1.6A195.976,195.976,0,0,0,33.949,52,196.486,196.486,0,0,0,67.59,49.109a187.9,187.9,0,0,0,31.333-8.284,177.9,177.9,0,0,0,28.354-13.107,165.364,165.364,0,0,0,24.7-17.36Q157.78,5.42,163.007,0a89.285,89.285,0,0,1,7.983,14.2,154.128,154.128,0,0,1-12.023,11.4,165.389,165.389,0,0,1-24.7,17.359,177.866,177.866,0,0,1-28.354,13.107A187.907,187.907,0,0,1,74.575,64.35a196.486,196.486,0,0,1-33.641,2.888A195.053,195.053,0,0,1,.861,63.116Z" transform="translate(386.337 468.68)" fill="#c6b322"/>
    <path id="Intersection_19" data-name="Intersection 19" d="M0,37.066a89.481,89.481,0,0,1,5.223-7.943q3.033.093,6.073.093a196.47,196.47,0,0,0,33.64-2.888,187.836,187.836,0,0,0,31.333-8.284A177.8,177.8,0,0,0,104.624,4.937Q108.729,2.575,112.676,0A89.077,89.077,0,0,1,124.39,6.136q-5.791,4.015-11.971,7.572A177.846,177.846,0,0,1,84.064,26.815,187.9,187.9,0,0,1,52.731,35.1,196.485,196.485,0,0,1,19.09,37.987C12.7,37.987,6.321,37.679,0,37.066Z" transform="translate(398.476 437.272)" fill="#b7a51c"/>
    <path id="Subtraction_3" data-name="Subtraction 3" d="M61.1,168.247h-.012c-17.527,0-31.623-1.56-41.9-4.637-10.631-3.184-16.919-7.929-18.69-14.1-1.043-3.64-.479-7.739,1.679-12.181a39.822,39.822,0,0,1,4.493-7.021l4.064,12.509,22.245-7.228a8.646,8.646,0,0,0,.324,2.581c1.175,4.1,5.484,7.242,12.807,9.338,7.084,2.027,16.908,3.055,29.2,3.056h.008a332.472,332.472,0,0,0,34.046-2c12.727-1.333,26.651-3.32,41.385-5.907,14.993-2.633,30.824-5.887,47.054-9.672,16.711-3.9,33.891-8.37,51.063-13.294,27.551-7.9,53.974-16.623,78.535-25.925,11.8-4.469,23.108-9.055,33.607-13.631,10.394-4.53,20.084-9.089,28.8-13.55s16.527-8.857,23.222-13.071a140.322,140.322,0,0,0,16.865-12.2c4.516-3.91,7.792-7.586,9.736-10.926,2-3.426,2.612-6.541,1.833-9.258-1.176-4.1-5.485-7.243-12.805-9.338a67.283,67.283,0,0,0-9.005-1.842L450.288,0c.645.174,1.281.355,1.891.538,10.631,3.184,16.919,7.927,18.689,14.1,1.043,3.641.478,7.739-1.679,12.181-2.1,4.33-5.741,9.04-10.816,14a147.8,147.8,0,0,1-19.07,15.33,309.616,309.616,0,0,1-26.441,16.174c-9.951,5.481-21.03,11.043-32.928,16.531-12.017,5.542-24.98,11.06-38.531,16.4-28.193,11.111-58.585,21.361-90.334,30.464-18.291,5.246-36.658,9.991-54.589,14.105-17.418,4-34.535,7.421-50.876,10.18-16.046,2.708-31.4,4.784-45.635,6.17C85.815,167.549,72.739,168.247,61.1,168.247Zm18.306-21.5c-23.086,0-36.406-3.9-38.52-11.273a7.826,7.826,0,0,1-.293-2.359l52.3-16.994a5.61,5.61,0,0,0-.258,3.542c.662,2.311,3.139,4.077,7.361,5.25,4.093,1.137,9.807,1.713,16.983,1.713,13.563,0,32.11-2.065,53.638-5.971,10.927-1.983,22.522-4.42,34.465-7.245,12.324-2.914,25.021-6.241,37.738-9.887,19.31-5.537,37.855-11.566,55.121-17.922,16.673-6.136,31.457-12.317,43.941-18.37,6.149-2.981,11.671-5.905,16.412-8.69a106.916,106.916,0,0,0,11.978-8.008,33.074,33.074,0,0,0,7-7.061c1.459-2.192,1.953-4.159,1.469-5.847-.663-2.311-3.139-4.077-7.36-5.25a63.174,63.174,0,0,0-15.5-1.7L411.1,12.733c6.336.766,11.384,2.034,15.005,3.769s5.862,3.967,6.621,6.616c.726,2.532.113,5.447-1.823,8.663A44.4,44.4,0,0,1,421.5,42.059,137.265,137.265,0,0,1,405.25,53.577c-6.443,3.986-13.959,8.153-22.339,12.383s-17.7,8.561-27.689,12.872c-10.085,4.35-20.95,8.718-32.293,12.983-23.589,8.87-48.963,17.214-75.419,24.8-16.71,4.792-33.427,9.151-49.686,12.956-15.788,3.694-31.16,6.871-45.688,9.442-14.289,2.529-27.756,4.473-40.025,5.777A315.075,315.075,0,0,1,79.411,146.748Z" transform="translate(239.721 445.034)" fill="#766908"/>
    <path id="Subtraction_4" data-name="Subtraction 4" d="M61.1,172.348c-17.533,0-31.632-1.56-41.907-4.638-10.631-3.184-16.919-7.928-18.69-14.1-1.043-3.641-.479-7.739,1.679-12.182,2.1-4.33,5.741-9.04,10.816-14a147.733,147.733,0,0,1,19.07-15.33A309.776,309.776,0,0,1,58.514,95.926C68.46,90.447,79.539,84.886,91.442,79.4c12.02-5.544,24.984-11.062,38.531-16.4,6.386-2.517,12.979-5.025,19.594-7.454a89.369,89.369,0,0,0-2.54,14.229c-11.676,4.428-22.865,8.97-33.258,13.5s-20.084,9.089-28.8,13.549-16.527,8.858-23.221,13.072a140.315,140.315,0,0,0-16.866,12.2c-4.516,3.91-7.792,7.586-9.736,10.926-1.995,3.426-2.611,6.54-1.832,9.258,1.176,4.1,5.484,7.243,12.807,9.338,7.084,2.027,16.908,3.055,29.2,3.056h.008a332.464,332.464,0,0,0,34.046-2c12.726-1.332,26.65-3.32,41.385-5.907,7.392-1.3,15.078-2.765,22.842-4.359a89.81,89.81,0,0,0,16.808,12.9c-15.322,3.412-30.4,6.375-44.8,8.807-16.046,2.708-31.4,4.784-45.635,6.17C85.825,171.649,72.749,172.348,61.1,172.348Zm18.306-21.5c-23.085,0-36.405-3.9-38.52-11.272-.726-2.532-.113-5.447,1.823-8.662a44.391,44.391,0,0,1,9.407-10.279,137.271,137.271,0,0,1,16.245-11.518c6.448-3.989,13.964-8.156,22.34-12.383S108.4,88.174,118.4,83.863c8.92-3.847,18.482-7.722,28.422-11.517-.134,2-.2,4.036-.2,6.059,0,2.614.114,5.252.339,7.842-6.209,2.644-12.082,5.306-17.458,7.912-6.145,2.979-11.667,5.9-16.412,8.69a106.9,106.9,0,0,0-11.978,8.008,33.073,33.073,0,0,0-7,7.061c-1.458,2.191-1.952,4.159-1.468,5.847.662,2.31,3.139,4.076,7.361,5.249,4.092,1.137,9.806,1.713,16.983,1.713,5.673,0,12.275-.363,19.62-1.08,7.328-.715,15.41-1.783,24.022-3.174a89.978,89.978,0,0,0,10.192,13.094c-6.355,1.284-12.642,2.477-18.686,3.546-14.289,2.529-27.756,4.473-40.025,5.777A314.888,314.888,0,0,1,79.411,150.849Zm236.182-31.784v0a88.866,88.866,0,0,0,7.239-19.48c1.513-.563,3.052-1.141,4.577-1.719,11.818-4.476,23.125-9.063,33.607-13.632,10.394-4.53,20.085-9.089,28.8-13.55s16.534-8.861,23.222-13.071a140.311,140.311,0,0,0,16.865-12.2c4.516-3.91,7.792-7.586,9.736-10.926,2-3.426,2.612-6.541,1.833-9.258-1.176-4.1-5.485-7.243-12.805-9.338-7.085-2.027-16.91-3.055-29.2-3.055a332.442,332.442,0,0,0-34.056,2c-12.72,1.332-26.644,3.319-41.387,5.908-5.584.981-11.359,2.061-17.163,3.212a90.177,90.177,0,0,0-9.4-10.426c9.621-1.962,19.147-3.741,28.314-5.288,16.048-2.709,31.4-4.785,45.635-6.17C385.556.7,398.632,0,410.272,0,427.8,0,441.9,1.56,452.179,4.638c10.632,3.185,16.92,7.929,18.689,14.1,1.043,3.64.479,7.739-1.679,12.181-2.1,4.331-5.742,9.041-10.816,14a147.751,147.751,0,0,1-19.07,15.33,309.641,309.641,0,0,1-26.441,16.174c-9.951,5.481-21.03,11.043-32.927,16.531-12.017,5.542-24.981,11.06-38.531,16.4-8.37,3.3-17.053,6.566-25.809,9.711Zm8.106-23.44h0a90.072,90.072,0,0,0,1.656-16.774c5.863-2.512,11.426-5.041,16.535-7.518,6.15-2.981,11.672-5.905,16.412-8.69a106.786,106.786,0,0,0,11.978-8.008,33.086,33.086,0,0,0,7-7.06c1.459-2.192,1.953-4.16,1.469-5.847-.663-2.311-3.139-4.078-7.36-5.25-4.09-1.136-9.8-1.712-16.984-1.712-5.107,0-10.98.3-17.459.878-6.457.581-13.557,1.45-21.1,2.585A89.654,89.654,0,0,0,308.463,26.1c4.41-.859,8.789-1.674,13.018-2.422,14.291-2.529,27.758-4.473,40.025-5.777a314.888,314.888,0,0,1,32.7-1.959c23.085,0,36.4,3.9,38.518,11.272.727,2.531.113,5.446-1.823,8.662A44.4,44.4,0,0,1,421.5,46.159,137.356,137.356,0,0,1,405.25,57.679c-6.445,3.987-13.961,8.153-22.339,12.382s-17.7,8.56-27.689,12.872c-9.852,4.25-20.457,8.52-31.521,12.692Z" transform="translate(239.721 440.933)" fill="#766908"/>
  </g>
</svg>
