<svg xmlns="http://www.w3.org/2000/svg" width="104" height="106" viewBox="0 0 104 106">
  <g id="venus" transform="translate(-68 -578)">
    <ellipse id="Ellipse_37" data-name="Ellipse 37" cx="52" cy="53" rx="52" ry="53" transform="translate(68 578)" fill="#c7af26"/>
    <path id="Intersection_17" data-name="Intersection 17" d="M3.72,72.465A53.457,53.457,0,0,1,0,52.8C0,23.638,23.233,0,51.892,0A51.764,51.764,0,0,1,97.555,27.7C88.784,45.009,71.971,60.063,50,68.058a92.685,92.685,0,0,1-31.631,5.687A83.3,83.3,0,0,1,3.72,72.465Z" transform="translate(68 578)" fill="#decb5b" opacity="0.652"/>
    <path id="Path_25" data-name="Path 25" d="M70.888,665.58A72.344,72.344,0,0,1,96.306,654.8a73.223,73.223,0,0,1,24.452,0c4.079.935-14.055,1.805-24.452,4.109S64.664,670.22,70.888,665.58Z" transform="translate(16.194 -69.872)" fill="#fff" opacity="0.526"/>
    <path id="Path_26" data-name="Path 26" d="M.022,12.87c-.655-2.162,13.78-8.5,25.417-10.778C36.112,0,58.671-1.075,59.754,1.544S40.861,2.69,30.464,4.993.677,15.032.022,12.87Z" transform="translate(96.215 666.799) rotate(-30)" fill="#fff" opacity="0.526"/>
    <path id="Path_27" data-name="Path 27" d="M.068,11.818c1.1-2.155,13.78-8.5,25.417-10.778a73.221,73.221,0,0,1,24.452,0c4.079.935-17.783,2.055-28.18,4.359S-1.028,13.973.068,11.818Z" transform="matrix(0.974, -0.225, 0.225, 0.974, 119.924, 651.144)" fill="#fff" opacity="0.526"/>
  </g>
</svg>
